<?xml version="1.0" encoding="UTF-8" standalone="no"?>
<!-- Created with Inkscape (http://www.inkscape.org/) -->

<svg
   width="64"
   height="64"
   viewBox="0 0 64 64"
   version="1.1"
   id="svg1"
   inkscape:version="1.4.3 (0d15f750, 2025-12-25)"
   sodipodi:docname="favicon.svg"
   xmlns:inkscape="http://www.inkscape.org/namespaces/inkscape"
   xmlns:sodipodi="http://sodipodi.sourceforge.net/DTD/sodipodi-0.dtd"
   xmlns="http://www.w3.org/2000/svg"
   xmlns:svg="http://www.w3.org/2000/svg">
  <sodipodi:namedview
     id="namedview1"
     pagecolor="#ffffff"
     bordercolor="#666666"
     borderopacity="1.0"
     inkscape:showpageshadow="2"
     inkscape:pageopacity="0.0"
     inkscape:pagecheckerboard="false"
     inkscape:deskcolor="#d1d1d1"
     inkscape:document-units="mm"
     showborder="true"
     inkscape:zoom="4.7476405"
     inkscape:cx="25.065082"
     inkscape:cy="32.753112"
     inkscape:window-width="1300"
     inkscape:window-height="756"
     inkscape:window-x="0"
     inkscape:window-y="25"
     inkscape:window-maximized="0"
     inkscape:current-layer="layer1" />
  <defs
     id="defs1">
    <rect
       x="-0.85051331"
       y="-0.85051331"
       width="55.000904"
       height="80.473073"
       id="rect1" />
  </defs>
  <g
     inkscape:label="Layer 1"
     inkscape:groupmode="layer"
     id="layer1">
    <path
       style="font-weight:bold;font-size:64px;line-height:1.25;font-family:serif;-inkscape-font-specification:'serif Bold';baseline-shift:baseline;white-space:pre;display:inline;overflow:visible;opacity:1;vector-effect:none;fill:#1e0d62;fill-opacity:0.4;stroke:none;stroke-opacity:0.4;paint-order:stroke fill markers;enable-background:accumulate;stop-color:#000000;stop-opacity:1"
       d="m 32.792969,9.375 -22.60844,48.25 c 0,0 0.01536,0.248261 0.0017,3.080221 H 62.12033 V 57.625 C 53.45057,41.072874 47.464885,26.452012 39.888672,9.375 Z"
       id="path37"
       sodipodi:nodetypes="ccccccc" />
    <path
       style="font-weight:bold;font-size:64px;line-height:1.25;font-family:serif;-inkscape-font-specification:'serif Bold';baseline-shift:baseline;white-space:pre;display:inline;overflow:visible;opacity:1;vector-effect:none;fill:#fff8e8;paint-order:stroke fill markers;enable-background:accumulate;stop-color:#000000;stop-opacity:1"
       d="m 26.792969,3.375 -22.6084402,48.25 0.00173,4.3554 H 56.12033 V 51.625 C 47.45057,35.072874 41.464885,20.452012 33.888672,3.375 Z"
       id="path36"
       sodipodi:nodetypes="ccccccc" />
    <path
       style="font-weight:bold;font-size:64px;line-height:1.25;font-family:serif;-inkscape-font-specification:'serif Bold';white-space:pre;fill:#1e0d62;stroke:none;stroke-width:10;stroke-dasharray:none;stroke-opacity:1;paint-order:stroke fill markers;stroke-linejoin:miter"
       d="M 33.625,39.5625 H 18.65625 L 16.875,43.6875 Q 16,45.75 16,47.09375 q 0,1.78125 1.4375,2.625 0.84375,0.5 4.15625,0.75 V 51.625 H 7.4999999 V 50.46875 Q 9.7812501,50.125 11.25,48.59375 12.71875,47.03125 14.875,42.1875 L 30.03125,8.375 H 30.625 l 15.28125,34.75 q 2.1875,4.9375 3.59375,6.21875 1.0625,0.96875 3,1.125 V 51.625 H 32 v -1.15625 h 0.84375 q 2.46875,0 3.46875,-0.6875 Q 37,49.28125 37,48.34375 37,47.78125 36.8125,47.1875 36.75,46.90625 35.875,44.84375 Z M 32.5625,37.25 26.25,22.65625 19.75,37.25 Z"
       id="text1"
       aria-label="A" />
  </g>
</svg>
